<svg xmlns="http://www.w3.org/2000/svg" preserveAspectRatio="xMidYMid meet" width="66.85714285714289" height="94.28571428571425" style=""><rect id="backgroundrect" width="100%" height="100%" x="0" y="0" fill="none" stroke="none" class="" style=""/>
						
					<g class="currentLayer" style=""><title>Layer 1</title><g id="svg_1" class="" fill="#f7e07c" fill-opacity="1" transform="rotate(-28.41046142578125 37.05932998657225,45.77854919433594) ">
							<path d="M22.271808670557306,16.429441610472598 c3.6672462459028914,-5.292462883583937 8.299557293359175,-9.430206592567743 13.800426662213512,-12.220777931184728 c1.6406101626407672,-0.8660393809500992 2.5091684840388204,-2.6943447407336407 2.026636083262124,-4.522650100517183 c-0.4825324007766968,-1.732078761900198 -1.8336231229514457,-2.9830245343836737 -3.474233285592213,-2.9830245343836737 c-0.5790388809320357,0 -1.1580777618640714,0.19245319576668904 -1.737116642796107,0.481132989416722 c-6.948466571184426,3.5603841216837395 -12.642348900349441,8.4679406137343 -16.888634027184366,14.626442878268335 c-0.8685583213980537,1.250945772483476 -0.9650648015533937,2.6943447407336407 -0.28951944046601835,4.041517111100461 c0.6755453610873783,1.3471723703668208 2.1231425634174634,2.213211751316919 3.570739765747552,2.213211751316919 c1.2545842420194102,0 2.3161555237281424,-0.5773595873000663 2.9917008848155167,-1.6358521640168533 z" id="svg_2" fill="#f7e07c" fill-opacity="1"/>
							<path d="M55.47003784399399,43.27666241992567 c-8.106544333048497,-1.250945772483476 -16.213088666096994,-1.3471723703668208 -24.31963299914549,-0.19245319576668904 c-2.026636083262124,0.28867979365003377 -3.474233285592213,2.0207585555502305 -3.2812203252815344,4.137743708983805 c0.1930129603106789,2.116985153433575 1.737116642796107,3.6566107195670847 3.7637527260582306,3.6566107195670847 h0.5790388809320357 c7.430998971961122,-1.0584925767167874 14.765491463766905,-0.962265978833444 22.196490435728027,0.19245319576668904 c0.1930129603106789,0 0.4825324007766968,0.09622659788334473 0.6755453610873783,0.09622659788334473 c2.026636083262124,0 3.570739765747552,-1.5396255661335094 3.7637527260582306,-3.5603841216837395 c0.09650648015533969,-2.309438349200264 -1.2545842420194102,-4.041517111100461 -3.3777268054368736,-4.330196904750494 z" id="svg_3" fill="#f7e07c" fill-opacity="1"/>
							<path d="M22.561328111023318,79.26541002829644 c-2.3161555237281424,-0.481132989416722 -4.342791606990266,1.1547191746001322 -4.535804567300945,3.464157523800395 c-0.1930129603106789,2.0207585555502305 1.0615712817087317,3.752837317450428 3.088207364970856,4.137743708983805 c5.500869368854337,0.962265978833444 10.133180416310621,3.2717043280337066 14.282959062990209,7.024541645484135 c0.7720518412427143,0.6735861851834135 1.6406101626407672,0.962265978833444 2.5091684840388204,0.962265978833444 c1.544103682485428,0 3.088207364970856,-1.0584925767167874 3.6672462459028914,-2.5981181428502964 c0.5790388809320357,-1.4433989682501651 0.1930129603106789,-3.079251132267018 -1.0615712817087317,-4.137743708983805 c-5.018336968077641,-4.618876698400527 -11.098245217864013,-7.6019012327842015 -17.9502053088931,-8.852847005267677 z" id="svg_4" fill="#f7e07c" fill-opacity="1"/>
						</g></g></svg>